<svg width="1901" height="610" fill="none" xmlns="http://www.w3.org/2000/svg"><g filter="url(#a)"><path d="M867.262 16.238v69.266c.079 2.045.826 3.776 2.242 5.192 1.495 1.416 3.265 2.124 5.31 2.124h1.416l.118 1.18h-35.872v-1.18h1.534c1.967 0 3.658-.708 5.074-2.124 1.495-1.416 2.321-3.107 2.478-5.074V16.238h-15.93c-3.619.079-6.49 1.22-8.614 3.422-2.124 2.203-3.186 5.074-3.186 8.614v1.416h-1.18V9.158c3.225 1.337 7.867 2.045 13.924 2.124h47.554c2.439 0 5.074-.236 7.906-.708 2.911-.472 4.917-.944 6.018-1.416V29.69h-1.18v-1.416c0-4.877-1.849-8.339-5.546-10.384-1.731-1.023-3.815-1.573-6.254-1.652h-15.812zm92.75 76.582c2.045 0 3.619-.511 4.72-1.534 1.809-1.81 2.753-3.737 2.832-5.782v-30.09h-38.232v29.972c0 2.045.747 3.815 2.242 5.31 1.495 1.416 3.265 2.124 5.31 2.124h1.416l.118 1.18h-35.872v-1.18h1.534c2.045 0 3.776-.708 5.192-2.124 1.495-1.495 2.281-3.265 2.36-5.31V20.014c-.079-2.045-.865-3.776-2.36-5.192-1.416-1.495-3.147-2.242-5.192-2.242h-1.534V11.4h35.872l-.118 1.18h-1.416c-2.045 0-3.815.747-5.31 2.242-1.495 1.416-2.242 3.147-2.242 5.192V50.34h38.232V20.014c-.079-2.045-.865-3.776-2.36-5.192-1.416-1.495-3.147-2.242-5.192-2.242h-1.534V11.4h35.872v1.18h-1.534c-2.045 0-3.815.747-5.31 2.242-1.495 1.416-2.242 3.147-2.242 5.192v65.372c0 2.045.747 3.815 2.242 5.31 1.495 1.416 3.265 2.124 5.31 2.124h1.534V94h-35.872v-1.18h1.534zm45.708 0c2.04 0 3.77-.708 5.19-2.124 1.49-1.495 2.28-3.265 2.36-5.31V19.66c-.16-2.045-.75-3.54-1.77-4.484-1.89-1.73-3.82-2.596-5.78-2.596h-1.54V11.4h45.2c3.85 0 7.04-.275 9.55-.826 2.52-.63 4.06-1.062 4.61-1.298v20.65l-1.18-.118V28.51c0-4.877-1.81-8.339-5.43-10.384-1.73-1.023-3.78-1.573-6.14-1.652h-19.82v34.338h15.57c2.92-.079 5.31-1.062 7.2-2.95 1.89-1.967 2.83-4.366 2.83-7.198v-1.062h1.18V66.86h-1.18v-.944c0-2.91-.94-5.31-2.83-7.198-1.81-1.888-4.13-2.871-6.96-2.95h-15.81v33.158h15.46c5.74 0 10.54-1.652 14.39-4.956 3.94-3.304 6.85-7.985 8.73-14.042h1.18L1065.31 94h-61.13v-1.18h1.54z" fill="red"/></g><g filter="url(#b)"><path d="M649.088 566.068c-30.365 0-54.201-7.631-71.508-22.892-17.307-15.261-25.96-36.187-25.96-62.776 0-26.589 8.575-47.515 25.724-62.776 17.149-15.419 40.671-23.128 70.564-23.128 22.813 0 42.401 4.248 58.764 12.744l.472 40.592h-1.888c-8.024-28.949-26.353-43.424-54.988-43.424-18.565 0-33.276 6.765-44.132 20.296-10.699 13.373-16.048 31.703-16.048 54.988s5.113 41.772 15.34 55.46c10.384 13.688 24.387 20.768 42.008 21.24 18.251 0 32.175-4.563 41.772-13.688 9.755-9.44 16.52-25.645 20.296-48.616h1.888l2.36 40.592c-12.744 21.083-34.299 31.545-64.664 31.388zm200.209-5.428c4.091 0 7.237-1.023 9.44-3.068 3.619-3.619 5.507-7.473 5.664-11.564v-60.18h-76.464v59.944c0 4.091 1.495 7.631 4.484 10.62 2.989 2.832 6.529 4.248 10.62 4.248h2.832l.236 2.36h-71.744v-2.36h3.068c4.091 0 7.552-1.416 10.384-4.248 2.989-2.989 4.563-6.529 4.72-10.62V415.028c-.157-4.091-1.731-7.552-4.72-10.384-2.832-2.989-6.293-4.484-10.384-4.484h-3.068v-2.36h71.744l-.236 2.36h-2.832c-4.091 0-7.631 1.495-10.62 4.484-2.989 2.832-4.484 6.293-4.484 10.384v60.652h76.464v-60.652c-.157-4.091-1.731-7.552-4.72-10.384-2.832-2.989-6.293-4.484-10.384-4.484h-3.068v-2.36h71.744v2.36h-3.068c-4.091 0-7.631 1.495-10.62 4.484-2.989 2.832-4.484 6.293-4.484 10.384v130.744c0 4.091 1.495 7.631 4.484 10.62 2.989 2.832 6.529 4.248 10.62 4.248h3.068V563h-71.744v-2.36h3.068zm91.41 0c4.09 0 7.552-1.416 10.384-4.248 2.989-2.989 4.562-6.529 4.72-10.62V414.32c-.315-4.091-1.495-7.08-3.54-8.968-3.776-3.461-7.631-5.192-11.564-5.192h-3.068v-2.36h90.391c7.71 0 14.08-.551 19.11-1.652 5.04-1.259 8.11-2.124 9.21-2.596v41.3l-2.36-.236v-2.596c0-9.755-3.62-16.677-10.86-20.768-3.46-2.045-7.55-3.147-12.27-3.304h-39.649v68.676h31.149c5.82-.157 10.62-2.124 14.4-5.9 3.77-3.933 5.66-8.732 5.66-14.396v-2.124h2.36v54.516h-2.36v-1.888c0-5.821-1.89-10.62-5.66-14.396-3.62-3.776-8.26-5.743-13.93-5.9h-31.619v66.316h30.919c11.48 0 21.08-3.304 28.79-9.912 7.87-6.608 13.69-15.969 17.46-28.084h2.36L1059.89 563H937.639v-2.36h3.068zm198.463-152.692v68.676h31.15c5.82-.157 10.62-2.124 14.4-5.9 3.78-3.776 5.66-8.575 5.66-14.396v-2.124h2.36v54.516h-2.36v-1.888c0-5.821-1.88-10.62-5.66-14.396-3.62-3.776-8.26-5.743-13.92-5.9h-31.63v59.236c0 4.091 1.5 7.631 4.49 10.62 2.98 2.832 6.52 4.248 10.62 4.248h2.83l.23 2.36h-71.74v-2.36h3.07c4.09 0 7.55-1.416 10.38-4.248 2.99-2.989 4.56-6.529 4.72-10.62V414.32c0-5.507-2.59-9.597-7.79-12.272-2.2-1.259-4.64-1.888-7.31-1.888h-3.07v-2.36h90.39c4.87 0 10.22-.472 16.05-1.416 5.82-.944 9.91-1.888 12.27-2.832v39.884h-2.36v-2.36c0-6.923-2.05-12.429-6.14-16.52-3.93-4.248-9.36-6.451-16.28-6.608h-40.36zm88.67 133.104c0-11.328 2.44-21.004 7.32-29.028h2.12a31.89 31.89 0 0 0-.23 3.776c0 10.856 3.85 20.375 11.56 28.556 7.87 8.024 18.57 12.036 32.1 12.036 10.54 0 18.72-2.517 24.54-7.552 5.98-5.035 8.97-11.407 8.97-19.116 0-4.563-1.5-8.653-4.49-12.272-2.83-3.619-7.63-7.631-14.39-12.036l-41.07-27.14c-15.26-10.227-22.89-22.813-22.89-37.76 0-1.573.16-3.147.47-4.72.95-12.429 5.75-22.42 14.4-29.972 8.81-7.552 20.53-11.328 35.16-11.328 8.66 0 19.36.787 32.1 2.36h14.87l-3.07 34.692h-2.36c0-8.181-3.07-14.711-9.2-19.588-5.98-5.035-14.01-7.552-24.08-7.552-12.27 0-21.16 3.776-26.66 11.328-2.84 3.619-4.25 7.237-4.25 10.856 0 3.619.71 6.687 2.12 9.204 2.21 4.091 7 8.496 14.4 13.216l45.07 29.264c14.16 9.283 21.24 21.397 21.24 36.344 0 16.677-5.74 29.5-17.22 38.468-11.33 8.811-26.44 13.216-45.32 13.216-10.69 0-20.61-1.259-29.73-3.776-8.97-2.675-15.58-6.215-19.83-10.62-1.1-2.989-1.65-6.608-1.65-10.856z" fill="#222"/></g><g filter="url(#c)"><path d="M147.972 199c0 7.237-1.416 14.081-4.248 20.532-5.349 12.429-15.261 20.925-29.736 25.488-4.248 1.416-8.181 2.124-11.8 2.124-11.17 0-21.161-2.911-29.972-8.732v-2.36c11.8.315 21.319-3.54 28.556-11.564 6.293-6.923 9.44-15.969 9.44-27.14 0-11.328-2.753-20.06-8.26-26.196-5.35-6.293-12.665-9.44-21.948-9.44H64.192v138.06c0 4.091 1.495 7.631 4.484 10.62 2.99 2.832 6.53 4.248 10.62 4.248h3.068V317H10.62v-2.36h3.068c4.09 0 7.552-1.416 10.384-4.248 2.99-2.989 4.563-6.529 4.72-10.62V167.848c0-3.933-1.495-7.159-4.484-9.676-2.99-2.675-6.53-4.012-10.62-4.012H10.62v-2.36h78.824c19.195 0 33.669 4.091 43.424 12.272 10.069 8.653 15.104 20.296 15.104 34.928zm81.26-36.816h-10.856v137.588c.157 4.091 1.652 7.631 4.484 10.62 2.989 2.832 6.529 4.248 10.62 4.248h3.068V317h-71.744v-2.36h3.068c5.664 0 9.99-2.439 12.98-7.316 1.258-2.203 1.966-4.641 2.124-7.316v-130.98c-.158-4.091-1.731-7.552-4.72-10.384-2.832-2.989-6.294-4.484-10.384-4.484h-3.068v-2.36h80.948c15.261 0 28.162 3.304 38.704 9.912 5.349 3.304 9.597 7.945 12.744 13.924 3.146 5.821 4.72 13.531 4.72 23.128 0 9.44-3.304 18.565-9.912 27.376-6.608 8.811-16.206 13.845-28.792 15.104 9.125 2.989 17.149 9.912 24.072 20.768 16.992 27.219 29.578 43.424 37.76 48.616 4.09 2.517 9.204 3.855 15.34 4.012V317H317.26c-13.688 0-25.095-1.809-34.22-5.428-8.968-3.619-16.048-9.991-21.24-19.116-2.99-5.192-9.519-18.644-19.588-40.356-4.406-9.597-9.755-14.868-16.048-15.812v-2.36h7.316c7.08 0 13.294-2.124 18.644-6.372 5.506-4.248 9.204-11.171 11.092-20.768.629-3.304.944-5.9.944-7.788 0-12.901-2.596-22.184-7.788-27.848-5.192-5.821-11.879-8.811-20.06-8.968h-7.08zm130.696 9.44c16.834-15.419 39.412-23.128 67.732-23.128 28.477 0 51.054 7.709 67.732 23.128 16.834 15.419 25.252 36.344 25.252 62.776 0 26.432-8.418 47.357-25.252 62.776-16.678 15.419-39.255 23.128-67.732 23.128-28.32 0-50.898-7.709-67.732-23.128-16.678-15.419-25.016-36.344-25.016-62.776 0-26.432 8.338-47.357 25.016-62.776zm28.084 118.472c9.754 13.531 22.97 20.296 39.648 20.296 16.677 0 29.893-6.765 39.648-20.296 9.754-13.688 14.632-32.253 14.632-55.696 0-23.443-4.878-41.929-14.632-55.46-9.755-13.688-22.971-20.532-39.648-20.532-16.678 0-29.894 6.844-39.648 20.532-9.598 13.531-14.396 32.017-14.396 55.46 0 23.443 4.798 42.008 14.396 55.696zm201.402-128.148v68.676h31.152c5.821-.157 10.62-2.124 14.396-5.9 3.776-3.776 5.664-8.575 5.664-14.396v-2.124h2.36v54.516h-2.36v-1.888c0-5.821-1.888-10.62-5.664-14.396-3.619-3.776-8.26-5.743-13.924-5.9h-31.624v59.236c0 4.091 1.494 7.631 4.484 10.62 2.989 2.832 6.529 4.248 10.62 4.248h2.832l.236 2.36h-71.744v-2.36h3.068c4.09 0 7.552-1.416 10.384-4.248 2.989-2.989 4.562-6.529 4.72-10.62V168.32c0-5.507-2.596-9.597-7.788-12.272-2.203-1.259-4.642-1.888-7.316-1.888h-3.068v-2.36h90.388c4.877 0 10.226-.472 16.048-1.416 5.821-.944 9.912-1.888 12.272-2.832v39.884h-2.36v-2.36c0-6.923-2.046-12.429-6.136-16.52-3.934-4.248-9.362-6.451-16.284-6.608h-40.356zm89.851 152.692c4.091 0 7.552-1.416 10.384-4.248 2.989-2.989 4.563-6.529 4.72-10.62V168.32c-.315-4.091-1.495-7.08-3.54-8.968-3.776-3.461-7.631-5.192-11.564-5.192h-3.068v-2.36h90.388c7.709 0 14.081-.551 19.116-1.652 5.035-1.259 8.103-2.124 9.204-2.596v41.3l-2.36-.236v-2.596c0-9.755-3.619-16.677-10.856-20.768-3.461-2.045-7.552-3.147-12.272-3.304h-39.648v68.676h31.152c5.821-.157 10.62-2.124 14.396-5.9 3.776-3.933 5.664-8.732 5.664-14.396v-2.124h2.36v54.516h-2.36v-1.888c0-5.821-1.888-10.62-5.664-14.396-3.619-3.776-8.26-5.743-13.924-5.9h-31.624v66.316h30.916c11.485 0 21.083-3.304 28.792-9.912 7.867-6.608 13.688-15.969 17.464-28.084h2.36L798.445 317H676.197v-2.36h3.068zm147.703-19.588c0-11.328 2.439-21.004 7.316-29.028h2.124a30.479 30.479 0 0 0-.236 3.776c0 10.856 3.855 20.375 11.564 28.556 7.867 8.024 18.565 12.036 32.096 12.036 10.541 0 18.723-2.517 24.544-7.552 5.979-5.035 8.968-11.407 8.968-19.116 0-4.563-1.495-8.653-4.484-12.272-2.832-3.619-7.631-7.631-14.396-12.036l-41.064-27.14c-15.261-10.227-22.892-22.813-22.892-37.76 0-1.573.157-3.147.472-4.72.944-12.429 5.743-22.42 14.396-29.972 8.811-7.552 20.532-11.328 35.164-11.328 8.653 0 19.352.787 32.096 2.36h14.868l-3.068 34.692h-2.36c0-8.181-3.068-14.711-9.204-19.588-5.979-5.035-14.003-7.552-24.072-7.552-12.272 0-21.161 3.776-26.668 11.328-2.832 3.619-4.248 7.237-4.248 10.856 0 3.619.708 6.687 2.124 9.204 2.203 4.091 7.001 8.496 14.396 13.216l45.076 29.264c14.16 9.283 21.24 21.397 21.24 36.344 0 16.677-5.743 29.5-17.228 38.468-11.328 8.811-26.432 13.216-45.312 13.216-10.699 0-20.611-1.259-29.736-3.776-8.968-2.675-15.576-6.215-19.824-10.62-1.101-2.989-1.652-6.608-1.652-10.856zm136.437 0c0-11.328 2.439-21.004 7.316-29.028h2.124a30.479 30.479 0 0 0-.236 3.776c0 10.856 3.855 20.375 11.564 28.556 7.867 8.024 18.567 12.036 32.097 12.036 10.54 0 18.72-2.517 24.54-7.552 5.98-5.035 8.97-11.407 8.97-19.116 0-4.563-1.49-8.653-4.48-12.272-2.83-3.619-7.63-7.631-14.4-12.036l-41.063-27.14c-15.261-10.227-22.892-22.813-22.892-37.76 0-1.573.158-3.147.472-4.72.944-12.429 5.743-22.42 14.396-29.972 8.811-7.552 20.537-11.328 35.167-11.328 8.65 0 19.35.787 32.09 2.36h14.87l-3.07 34.692h-2.36c0-8.181-3.06-14.711-9.2-19.588-5.98-5.035-14-7.552-24.07-7.552-12.27 0-21.16 3.776-26.671 11.328-2.832 3.619-4.248 7.237-4.248 10.856 0 3.619.708 6.687 2.124 9.204 2.203 4.091 7.005 8.496 14.395 13.216l45.08 29.264c14.16 9.283 21.24 21.397 21.24 36.344 0 16.677-5.75 29.5-17.23 38.468-11.33 8.811-26.43 13.216-45.31 13.216-10.7 0-20.613-1.259-29.739-3.776-8.968-2.675-15.576-6.215-19.824-10.62-1.101-2.989-1.652-6.608-1.652-10.856zm136.235 19.588c4.09 0 7.55-1.416 10.38-4.248 2.99-2.989 4.57-6.529 4.72-10.62v-130.98c-.15-4.091-1.73-7.552-4.72-10.384-2.83-2.832-6.29-4.248-10.38-4.248h-3.07v-2.36h71.75l-.24 2.36h-2.83c-4.09 0-7.63 1.416-10.62 4.248-2.99 2.832-4.49 6.293-4.49 10.384v130.98c0 4.091 1.5 7.631 4.49 10.62 2.99 2.832 6.53 4.248 10.62 4.248h2.83l.24 2.36h-71.75v-2.36h3.07zm110.03-143.016c16.83-15.419 39.41-23.128 67.73-23.128 28.48 0 51.05 7.709 67.73 23.128 16.83 15.419 25.25 36.344 25.25 62.776 0 26.432-8.42 47.357-25.25 62.776-16.68 15.419-39.25 23.128-67.73 23.128-28.32 0-50.9-7.709-67.73-23.128-16.68-15.419-25.02-36.344-25.02-62.776 0-26.432 8.34-47.357 25.02-62.776zm28.08 118.472c9.75 13.531 22.97 20.296 39.65 20.296s29.89-6.765 39.65-20.296c9.75-13.688 14.63-32.253 14.63-55.696 0-23.443-4.88-41.929-14.63-55.46-9.76-13.688-22.97-20.532-39.65-20.532s-29.9 6.844-39.65 20.532c-9.6 13.531-14.4 32.017-14.4 55.46 0 23.443 4.8 42.008 14.4 55.696zm330.73-135.936c-5.51 0-9.68 2.36-12.51 7.08-1.26 2.045-1.96 4.405-2.12 7.08v121.776c0 10.541.71 19.431 2.12 26.668l.71 3.54h-2.12l-119.18-113.516v93.692c0 3.933 1.41 7.316 4.24 10.148 2.84 2.675 6.22 4.012 10.15 4.012h4.49V317h-71.51v-2.36h4.25c4.09 0 7.55-1.337 10.38-4.012 2.83-2.832 4.25-6.293 4.25-10.384V177.76c0-10.384-.71-19.037-2.13-25.96l-.47-3.54h2.13l119.18 113.516v-93.22c-.16-4.091-1.66-7.473-4.49-10.148-2.83-2.832-6.21-4.248-10.15-4.248h-4.24v-2.36h71.5v2.36h-4.48zm184.17 160.48h2.12V317h-75.28v-2.36h2.12c3.46 0 5.98-1.023 7.55-3.068 1.74-2.203 2.6-4.248 2.6-6.136s-.39-3.776-1.18-5.664l-11.56-29.028h-55.23l-12.27 29.028c-.79 2.045-1.18 4.012-1.18 5.9 0 1.731.87 3.697 2.6 5.9 1.73 2.045 4.32 3.068 7.78 3.068h1.89V317h-50.5v-2.36h2.12c3.62 0 7.24-1.101 10.86-3.304 3.62-2.203 6.61-5.507 8.97-9.912l54.51-123.428c7.4-15.576 11.33-25.881 11.8-30.916h2.13l70.09 153.872c2.36 4.563 5.35 8.024 8.97 10.384 3.62 2.203 7.31 3.304 11.09 3.304zm-124.85-53.808h47.2l-22.89-58.056-24.31 58.056zm132.59 53.808c4.09 0 7.56-1.416 10.39-4.248 2.99-2.989 4.56-6.529 4.72-10.62V169.028c-.16-4.091-1.73-7.552-4.72-10.384-2.83-2.989-6.3-4.484-10.39-4.484h-3.06v-2.36h71.74l-.24 2.36H1826c-4.09 0-7.63 1.495-10.62 4.484-2.99 2.832-4.48 6.293-4.48 10.384v137.824h30.91c11.49 0 21.09-3.304 28.8-9.912 7.86-6.608 13.68-15.969 17.46-28.084h2.36L1879.57 317h-122.24v-2.36h3.06z" fill="#222"/></g><defs><filter id="a" x="810.652" y="3.158" width="270.083" height="104.842" filterUnits="userSpaceOnUse" color-interpolation-filters="sRGB"><feFlood flood-opacity="0" result="BackgroundImageFix"/><feColorMatrix in="SourceAlpha" values="0 0 0 0 0 0 0 0 0 0 0 0 0 0 0 0 0 0 127 0" result="hardAlpha"/><feOffset dy="4"/><feGaussianBlur stdDeviation="5"/><feComposite in2="hardAlpha" operator="out"/><feColorMatrix values="0 0 0 0 0 0 0 0 0 0 0 0 0 0 0 0 0 0 0.25 0"/><feBlend in2="BackgroundImageFix" result="effect1_dropShadow_130_118"/><feBlend in="SourceGraphic" in2="effect1_dropShadow_130_118" result="shape"/></filter><filter id="b" x="541.62" y="387.552" width="809.975" height="192.752" filterUnits="userSpaceOnUse" color-interpolation-filters="sRGB"><feFlood flood-opacity="0" result="BackgroundImageFix"/><feColorMatrix in="SourceAlpha" values="0 0 0 0 0 0 0 0 0 0 0 0 0 0 0 0 0 0 127 0" result="hardAlpha"/><feOffset dy="4"/><feGaussianBlur stdDeviation="5"/><feComposite in2="hardAlpha" operator="out"/><feColorMatrix values="0 0 0 0 0 0 0 0 0 0 0 0 0 0 0 0 0 0 0.25 0"/><feBlend in2="BackgroundImageFix" result="effect1_dropShadow_130_118"/><feBlend in="SourceGraphic" in2="effect1_dropShadow_130_118" result="shape"/></filter><filter id="c" x=".62" y="141.08" width="1899.81" height="193.224" filterUnits="userSpaceOnUse" color-interpolation-filters="sRGB"><feFlood flood-opacity="0" result="BackgroundImageFix"/><feColorMatrix in="SourceAlpha" values="0 0 0 0 0 0 0 0 0 0 0 0 0 0 0 0 0 0 127 0" result="hardAlpha"/><feOffset dy="4"/><feGaussianBlur stdDeviation="5"/><feComposite in2="hardAlpha" operator="out"/><feColorMatrix values="0 0 0 0 0 0 0 0 0 0 0 0 0 0 0 0 0 0 0.25 0"/><feBlend in2="BackgroundImageFix" result="effect1_dropShadow_130_118"/><feBlend in="SourceGraphic" in2="effect1_dropShadow_130_118" result="shape"/></filter></defs></svg>