<svg width="1901" height="610" viewBox="0 0 1901 610" fill="none" xmlns="http://www.w3.org/2000/svg">
<g filter="url(#filter0_d_130_118)">
<path d="M867.262 16.238V85.504C867.341 87.5493 868.088 89.28 869.504 90.696C870.999 92.112 872.769 92.82 874.814 92.82H876.23L876.348 94H840.476V92.82H842.01C843.977 92.82 845.668 92.112 847.084 90.696C848.579 89.28 849.405 87.5887 849.562 85.622V16.238H833.632C830.013 16.3167 827.142 17.4573 825.018 19.66C822.894 21.8627 821.832 24.734 821.832 28.274V29.69H820.652V9.158C823.877 10.4953 828.519 11.2033 834.576 11.282H882.13C884.569 11.282 887.204 11.046 890.036 10.574C892.947 10.102 894.953 9.62999 896.054 9.158V29.69H894.874V28.274C894.874 23.3967 893.025 19.9353 889.328 17.89C887.597 16.8673 885.513 16.3167 883.074 16.238H867.262ZM960.012 92.82C962.057 92.82 963.631 92.3087 964.732 91.286C966.541 89.4767 967.485 87.5493 967.564 85.504V55.414H929.332V85.386C929.332 87.4313 930.079 89.2013 931.574 90.696C933.069 92.112 934.839 92.82 936.884 92.82H938.3L938.418 94H902.546V92.82H904.08C906.125 92.82 907.856 92.112 909.272 90.696C910.767 89.2013 911.553 87.4313 911.632 85.386V20.014C911.553 17.9687 910.767 16.238 909.272 14.822C907.856 13.3273 906.125 12.58 904.08 12.58H902.546V11.4H938.418L938.3 12.58H936.884C934.839 12.58 933.069 13.3273 931.574 14.822C930.079 16.238 929.332 17.9687 929.332 20.014V50.34H967.564V20.014C967.485 17.9687 966.699 16.238 965.204 14.822C963.788 13.3273 962.057 12.58 960.012 12.58H958.478V11.4H994.35V12.58H992.816C990.771 12.58 989.001 13.3273 987.506 14.822C986.011 16.238 985.264 17.9687 985.264 20.014V85.386C985.264 87.4313 986.011 89.2013 987.506 90.696C989.001 92.112 990.771 92.82 992.816 92.82H994.35V94H958.478V92.82H960.012ZM1005.72 92.82C1007.76 92.82 1009.49 92.112 1010.91 90.696C1012.4 89.2013 1013.19 87.4313 1013.27 85.386V19.66C1013.11 17.6147 1012.52 16.12 1011.5 15.176C1009.61 13.4453 1007.68 12.58 1005.72 12.58H1004.18V11.4H1049.38C1053.23 11.4 1056.42 11.1247 1058.93 10.574C1061.45 9.94466 1062.99 9.512 1063.54 9.27599V29.926L1062.36 29.808V28.51C1062.36 23.6327 1060.55 20.1713 1056.93 18.126C1055.2 17.1033 1053.15 16.5527 1050.79 16.474H1030.97V50.812H1046.54C1049.46 50.7333 1051.85 49.75 1053.74 47.862C1055.63 45.8953 1056.57 43.496 1056.57 40.664V39.602H1057.75V66.86H1056.57V65.916C1056.57 63.0053 1055.63 60.606 1053.74 58.718C1051.93 56.83 1049.61 55.8467 1046.78 55.768H1030.97V88.926H1046.43C1052.17 88.926 1056.97 87.274 1060.82 83.97C1064.76 80.666 1067.67 75.9853 1069.55 69.928H1070.73L1065.31 94H1004.18V92.82H1005.72Z" fill="#FF0000"/>
</g>
<g filter="url(#filter1_d_130_118)">
<path d="M649.088 566.068C618.723 566.068 594.887 558.437 577.58 543.176C560.273 527.915 551.62 506.989 551.62 480.4C551.62 453.811 560.195 432.885 577.344 417.624C594.493 402.205 618.015 394.496 647.908 394.496C670.721 394.496 690.309 398.744 706.672 407.24L707.144 447.832H705.256C697.232 418.883 678.903 404.408 650.268 404.408C631.703 404.408 616.992 411.173 606.136 424.704C595.437 438.077 590.088 456.407 590.088 479.692C590.088 502.977 595.201 521.464 605.428 535.152C615.812 548.84 629.815 555.92 647.436 556.392C665.687 556.392 679.611 551.829 689.208 542.704C698.963 533.264 705.728 517.059 709.504 494.088H711.392L713.752 534.68C701.008 555.763 679.453 566.225 649.088 566.068ZM849.297 560.64C853.388 560.64 856.534 559.617 858.737 557.572C862.356 553.953 864.244 550.099 864.401 546.008V485.828H787.937V545.772C787.937 549.863 789.432 553.403 792.421 556.392C795.41 559.224 798.95 560.64 803.041 560.64H805.873L806.109 563H734.365V560.64H737.433C741.524 560.64 744.985 559.224 747.817 556.392C750.806 553.403 752.38 549.863 752.537 545.772V415.028C752.38 410.937 750.806 407.476 747.817 404.644C744.985 401.655 741.524 400.16 737.433 400.16H734.365V397.8H806.109L805.873 400.16H803.041C798.95 400.16 795.41 401.655 792.421 404.644C789.432 407.476 787.937 410.937 787.937 415.028V475.68H864.401V415.028C864.244 410.937 862.67 407.476 859.681 404.644C856.849 401.655 853.388 400.16 849.297 400.16H846.229V397.8H917.973V400.16H914.905C910.814 400.16 907.274 401.655 904.285 404.644C901.296 407.476 899.801 410.937 899.801 415.028V545.772C899.801 549.863 901.296 553.403 904.285 556.392C907.274 559.224 910.814 560.64 914.905 560.64H917.973V563H846.229V560.64H849.297ZM940.707 560.64C944.797 560.64 948.259 559.224 951.091 556.392C954.08 553.403 955.653 549.863 955.811 545.772V414.32C955.496 410.229 954.316 407.24 952.271 405.352C948.495 401.891 944.64 400.16 940.707 400.16H937.639V397.8H1028.03C1035.74 397.8 1042.11 397.249 1047.14 396.148C1052.18 394.889 1055.25 394.024 1056.35 393.552V434.852L1053.99 434.616V432.02C1053.99 422.265 1050.37 415.343 1043.13 411.252C1039.67 409.207 1035.58 408.105 1030.86 407.948H991.211V476.624H1022.36C1028.18 476.467 1032.98 474.5 1036.76 470.724C1040.53 466.791 1042.42 461.992 1042.42 456.328V454.204H1044.78V508.72H1042.42V506.832C1042.42 501.011 1040.53 496.212 1036.76 492.436C1033.14 488.66 1028.5 486.693 1022.83 486.536H991.211V552.852H1022.13C1033.61 552.852 1043.21 549.548 1050.92 542.94C1058.79 536.332 1064.61 526.971 1068.38 514.856H1070.74L1059.89 563H937.639V560.64H940.707ZM1139.17 407.948V476.624H1170.32C1176.14 476.467 1180.94 474.5 1184.72 470.724C1188.5 466.948 1190.38 462.149 1190.38 456.328V454.204H1192.74V508.72H1190.38V506.832C1190.38 501.011 1188.5 496.212 1184.72 492.436C1181.1 488.66 1176.46 486.693 1170.8 486.536H1139.17V545.772C1139.17 549.863 1140.67 553.403 1143.66 556.392C1146.64 559.224 1150.18 560.64 1154.28 560.64H1157.11L1157.34 563H1085.6V560.64H1088.67C1092.76 560.64 1096.22 559.224 1099.05 556.392C1102.04 553.403 1103.61 549.863 1103.77 545.772V414.32C1103.77 408.813 1101.18 404.723 1095.98 402.048C1093.78 400.789 1091.34 400.16 1088.67 400.16H1085.6V397.8H1175.99C1180.86 397.8 1186.21 397.328 1192.04 396.384C1197.86 395.44 1201.95 394.496 1204.31 393.552V433.436H1201.95V431.076C1201.95 424.153 1199.9 418.647 1195.81 414.556C1191.88 410.308 1186.45 408.105 1179.53 407.948H1139.17ZM1227.84 541.052C1227.84 529.724 1230.28 520.048 1235.16 512.024H1237.28C1237.13 513.283 1237.05 514.541 1237.05 515.8C1237.05 526.656 1240.9 536.175 1248.61 544.356C1256.48 552.38 1267.18 556.392 1280.71 556.392C1291.25 556.392 1299.43 553.875 1305.25 548.84C1311.23 543.805 1314.22 537.433 1314.22 529.724C1314.22 525.161 1312.72 521.071 1309.73 517.452C1306.9 513.833 1302.1 509.821 1295.34 505.416L1254.27 478.276C1239.01 468.049 1231.38 455.463 1231.38 440.516C1231.38 438.943 1231.54 437.369 1231.85 435.796C1232.8 423.367 1237.6 413.376 1246.25 405.824C1255.06 398.272 1266.78 394.496 1281.41 394.496C1290.07 394.496 1300.77 395.283 1313.51 396.856H1328.38L1325.31 431.548H1322.95C1322.95 423.367 1319.88 416.837 1313.75 411.96C1307.77 406.925 1299.74 404.408 1289.67 404.408C1277.4 404.408 1268.51 408.184 1263.01 415.736C1260.17 419.355 1258.76 422.973 1258.76 426.592C1258.76 430.211 1259.47 433.279 1260.88 435.796C1263.09 439.887 1267.88 444.292 1275.28 449.012L1320.35 478.276C1334.51 487.559 1341.59 499.673 1341.59 514.62C1341.59 531.297 1335.85 544.12 1324.37 553.088C1313.04 561.899 1297.93 566.304 1279.05 566.304C1268.36 566.304 1258.44 565.045 1249.32 562.528C1240.35 559.853 1233.74 556.313 1229.49 551.908C1228.39 548.919 1227.84 545.3 1227.84 541.052Z" fill="#222222"/>
</g>
<g filter="url(#filter2_d_130_118)">
<path d="M147.972 199C147.972 206.237 146.556 213.081 143.724 219.532C138.375 231.961 128.463 240.457 113.988 245.02C109.74 246.436 105.807 247.144 102.188 247.144C91.0173 247.144 81.0267 244.233 72.216 238.412V236.052C84.016 236.367 93.5347 232.512 100.772 224.488C107.065 217.565 110.212 208.519 110.212 197.348C110.212 186.02 107.459 177.288 101.952 171.152C96.6027 164.859 89.2867 161.712 80.004 161.712H64.192V299.772C64.192 303.863 65.6867 307.403 68.676 310.392C71.6653 313.224 75.2053 314.64 79.296 314.64H82.364V317H10.62V314.64H13.688C17.7787 314.64 21.24 313.224 24.072 310.392C27.0613 307.403 28.6347 303.863 28.792 299.772V167.848C28.792 163.915 27.2973 160.689 24.308 158.172C21.3187 155.497 17.7787 154.16 13.688 154.16H10.62V151.8H89.444C108.639 151.8 123.113 155.891 132.868 164.072C142.937 172.725 147.972 184.368 147.972 199ZM229.232 162.184H219.084C218.769 162.184 218.533 162.184 218.376 162.184V299.772C218.533 303.863 220.028 307.403 222.86 310.392C225.849 313.224 229.389 314.64 233.48 314.64H236.548V317H164.804V314.64H167.872C173.536 314.64 177.862 312.201 180.852 307.324C182.11 305.121 182.818 302.683 182.976 300.008V169.028C182.818 164.937 181.245 161.476 178.256 158.644C175.424 155.655 171.962 154.16 167.872 154.16H164.804V151.8H245.752C261.013 151.8 273.914 155.104 284.456 161.712C289.805 165.016 294.053 169.657 297.2 175.636C300.346 181.457 301.92 189.167 301.92 198.764C301.92 208.204 298.616 217.329 292.008 226.14C285.4 234.951 275.802 239.985 263.216 241.244C272.341 244.233 280.365 251.156 287.288 262.012C304.28 289.231 316.866 305.436 325.048 310.628C329.138 313.145 334.252 314.483 340.388 314.64V317H317.26C303.572 317 292.165 315.191 283.04 311.572C274.072 307.953 266.992 301.581 261.8 292.456C258.81 287.264 252.281 273.812 242.212 252.1C237.806 242.503 232.457 237.232 226.164 236.288V233.928H233.48C240.56 233.928 246.774 231.804 252.124 227.556C257.63 223.308 261.328 216.385 263.216 206.788C263.845 203.484 264.16 200.888 264.16 199C264.16 186.099 261.564 176.816 256.372 171.152C251.18 165.331 244.493 162.341 236.312 162.184C234.738 162.184 232.378 162.184 229.232 162.184ZM359.928 171.624C376.762 156.205 399.34 148.496 427.66 148.496C456.137 148.496 478.714 156.205 495.392 171.624C512.226 187.043 520.644 207.968 520.644 234.4C520.644 260.832 512.226 281.757 495.392 297.176C478.714 312.595 456.137 320.304 427.66 320.304C399.34 320.304 376.762 312.595 359.928 297.176C343.25 281.757 334.912 260.832 334.912 234.4C334.912 207.968 343.25 187.043 359.928 171.624ZM388.012 290.096C397.766 303.627 410.982 310.392 427.66 310.392C444.337 310.392 457.553 303.627 467.308 290.096C477.062 276.408 481.94 257.843 481.94 234.4C481.94 210.957 477.062 192.471 467.308 178.94C457.553 165.252 444.337 158.408 427.66 158.408C410.982 158.408 397.766 165.252 388.012 178.94C378.414 192.471 373.616 210.957 373.616 234.4C373.616 257.843 378.414 276.408 388.012 290.096ZM589.414 161.948V230.624H620.566C626.387 230.467 631.186 228.5 634.962 224.724C638.738 220.948 640.626 216.149 640.626 210.328V208.204H642.986V262.72H640.626V260.832C640.626 255.011 638.738 250.212 634.962 246.436C631.343 242.66 626.702 240.693 621.038 240.536H589.414V299.772C589.414 303.863 590.908 307.403 593.898 310.392C596.887 313.224 600.427 314.64 604.518 314.64H607.35L607.586 317H535.842V314.64H538.91C543 314.64 546.462 313.224 549.294 310.392C552.283 307.403 553.856 303.863 554.014 299.772V168.32C554.014 162.813 551.418 158.723 546.226 156.048C544.023 154.789 541.584 154.16 538.91 154.16H535.842V151.8H626.23C631.107 151.8 636.456 151.328 642.278 150.384C648.099 149.44 652.19 148.496 654.55 147.552V187.436H652.19V185.076C652.19 178.153 650.144 172.647 646.054 168.556C642.12 164.308 636.692 162.105 629.77 161.948H589.414ZM679.265 314.64C683.356 314.64 686.817 313.224 689.649 310.392C692.638 307.403 694.212 303.863 694.369 299.772V168.32C694.054 164.229 692.874 161.24 690.829 159.352C687.053 155.891 683.198 154.16 679.265 154.16H676.197V151.8H766.585C774.294 151.8 780.666 151.249 785.701 150.148C790.736 148.889 793.804 148.024 794.905 147.552V188.852L792.545 188.616V186.02C792.545 176.265 788.926 169.343 781.689 165.252C778.228 163.207 774.137 162.105 769.417 161.948H729.769V230.624H760.921C766.742 230.467 771.541 228.5 775.317 224.724C779.093 220.791 780.981 215.992 780.981 210.328V208.204H783.341V262.72H780.981V260.832C780.981 255.011 779.093 250.212 775.317 246.436C771.698 242.66 767.057 240.693 761.393 240.536H729.769V306.852H760.685C772.17 306.852 781.768 303.548 789.477 296.94C797.344 290.332 803.165 280.971 806.941 268.856H809.301L798.445 317H676.197V314.64H679.265ZM826.968 295.052C826.968 283.724 829.407 274.048 834.284 266.024H836.408C836.251 267.283 836.172 268.541 836.172 269.8C836.172 280.656 840.027 290.175 847.736 298.356C855.603 306.38 866.301 310.392 879.832 310.392C890.373 310.392 898.555 307.875 904.376 302.84C910.355 297.805 913.344 291.433 913.344 283.724C913.344 279.161 911.849 275.071 908.86 271.452C906.028 267.833 901.229 263.821 894.464 259.416L853.4 232.276C838.139 222.049 830.508 209.463 830.508 194.516C830.508 192.943 830.665 191.369 830.98 189.796C831.924 177.367 836.723 167.376 845.376 159.824C854.187 152.272 865.908 148.496 880.54 148.496C889.193 148.496 899.892 149.283 912.636 150.856H927.504L924.436 185.548H922.076C922.076 177.367 919.008 170.837 912.872 165.96C906.893 160.925 898.869 158.408 888.8 158.408C876.528 158.408 867.639 162.184 862.132 169.736C859.3 173.355 857.884 176.973 857.884 180.592C857.884 184.211 858.592 187.279 860.008 189.796C862.211 193.887 867.009 198.292 874.404 203.012L919.48 232.276C933.64 241.559 940.72 253.673 940.72 268.62C940.72 285.297 934.977 298.12 923.492 307.088C912.164 315.899 897.06 320.304 878.18 320.304C867.481 320.304 857.569 319.045 848.444 316.528C839.476 313.853 832.868 310.313 828.62 305.908C827.519 302.919 826.968 299.3 826.968 295.052ZM963.405 295.052C963.405 283.724 965.844 274.048 970.721 266.024H972.845C972.688 267.283 972.609 268.541 972.609 269.8C972.609 280.656 976.464 290.175 984.173 298.356C992.04 306.38 1002.74 310.392 1016.27 310.392C1026.81 310.392 1034.99 307.875 1040.81 302.84C1046.79 297.805 1049.78 291.433 1049.78 283.724C1049.78 279.161 1048.29 275.071 1045.3 271.452C1042.47 267.833 1037.67 263.821 1030.9 259.416L989.837 232.276C974.576 222.049 966.945 209.463 966.945 194.516C966.945 192.943 967.103 191.369 967.417 189.796C968.361 177.367 973.16 167.376 981.813 159.824C990.624 152.272 1002.35 148.496 1016.98 148.496C1025.63 148.496 1036.33 149.283 1049.07 150.856H1063.94L1060.87 185.548H1058.51C1058.51 177.367 1055.45 170.837 1049.31 165.96C1043.33 160.925 1035.31 158.408 1025.24 158.408C1012.97 158.408 1004.08 162.184 998.569 169.736C995.737 173.355 994.321 176.973 994.321 180.592C994.321 184.211 995.029 187.279 996.445 189.796C998.648 193.887 1003.45 198.292 1010.84 203.012L1055.92 232.276C1070.08 241.559 1077.16 253.673 1077.16 268.62C1077.16 285.297 1071.41 298.12 1059.93 307.088C1048.6 315.899 1033.5 320.304 1014.62 320.304C1003.92 320.304 994.007 319.045 984.881 316.528C975.913 313.853 969.305 310.313 965.057 305.908C963.956 302.919 963.405 299.3 963.405 295.052ZM1099.64 314.64C1103.73 314.64 1107.19 313.224 1110.02 310.392C1113.01 307.403 1114.59 303.863 1114.74 299.772V168.792C1114.59 164.701 1113.01 161.24 1110.02 158.408C1107.19 155.576 1103.73 154.16 1099.64 154.16H1096.57V151.8H1168.32L1168.08 154.16H1165.25C1161.16 154.16 1157.62 155.576 1154.63 158.408C1151.64 161.24 1150.14 164.701 1150.14 168.792V299.772C1150.14 303.863 1151.64 307.403 1154.63 310.392C1157.62 313.224 1161.16 314.64 1165.25 314.64H1168.08L1168.32 317H1096.57V314.64H1099.64ZM1209.67 171.624C1226.5 156.205 1249.08 148.496 1277.4 148.496C1305.88 148.496 1328.45 156.205 1345.13 171.624C1361.96 187.043 1370.38 207.968 1370.38 234.4C1370.38 260.832 1361.96 281.757 1345.13 297.176C1328.45 312.595 1305.88 320.304 1277.4 320.304C1249.08 320.304 1226.5 312.595 1209.67 297.176C1192.99 281.757 1184.65 260.832 1184.65 234.4C1184.65 207.968 1192.99 187.043 1209.67 171.624ZM1237.75 290.096C1247.5 303.627 1260.72 310.392 1277.4 310.392C1294.08 310.392 1307.29 303.627 1317.05 290.096C1326.8 276.408 1331.68 257.843 1331.68 234.4C1331.68 210.957 1326.8 192.471 1317.05 178.94C1307.29 165.252 1294.08 158.408 1277.4 158.408C1260.72 158.408 1247.5 165.252 1237.75 178.94C1228.15 192.471 1223.35 210.957 1223.35 234.4C1223.35 257.843 1228.15 276.408 1237.75 290.096ZM1568.48 154.16C1562.97 154.16 1558.8 156.52 1555.97 161.24C1554.71 163.285 1554.01 165.645 1553.85 168.32V290.096C1553.85 300.637 1554.56 309.527 1555.97 316.764L1556.68 320.304H1554.56L1435.38 206.788V300.48C1435.38 304.413 1436.79 307.796 1439.62 310.628C1442.46 313.303 1445.84 314.64 1449.77 314.64H1454.26V317H1382.75V314.64H1387C1391.09 314.64 1394.55 313.303 1397.38 310.628C1400.21 307.796 1401.63 304.335 1401.63 300.244V177.76C1401.63 167.376 1400.92 158.723 1399.5 151.8L1399.03 148.26H1401.16L1520.34 261.776V168.556C1520.18 164.465 1518.68 161.083 1515.85 158.408C1513.02 155.576 1509.64 154.16 1505.7 154.16H1501.46V151.8H1572.96V154.16H1568.48ZM1752.65 314.64H1754.77V317H1679.49V314.64H1681.61C1685.07 314.64 1687.59 313.617 1689.16 311.572C1690.9 309.369 1691.76 307.324 1691.76 305.436C1691.76 303.548 1691.37 301.66 1690.58 299.772L1679.02 270.744H1623.79L1611.52 299.772C1610.73 301.817 1610.34 303.784 1610.34 305.672C1610.34 307.403 1611.21 309.369 1612.94 311.572C1614.67 313.617 1617.26 314.64 1620.72 314.64H1622.61V317H1572.11V314.64H1574.23C1577.85 314.64 1581.47 313.539 1585.09 311.336C1588.71 309.133 1591.7 305.829 1594.06 301.424L1648.57 177.996C1655.97 162.42 1659.9 152.115 1660.37 147.08H1662.5L1732.59 300.952C1734.95 305.515 1737.94 308.976 1741.56 311.336C1745.18 313.539 1748.87 314.64 1752.65 314.64ZM1627.8 260.832H1675L1652.11 202.776L1627.8 260.832ZM1760.39 314.64C1764.48 314.64 1767.95 313.224 1770.78 310.392C1773.77 307.403 1775.34 303.863 1775.5 299.772V169.028C1775.34 164.937 1773.77 161.476 1770.78 158.644C1767.95 155.655 1764.48 154.16 1760.39 154.16H1757.33V151.8H1829.07L1828.83 154.16H1826C1821.91 154.16 1818.37 155.655 1815.38 158.644C1812.39 161.476 1810.9 164.937 1810.9 169.028V306.852H1841.81C1853.3 306.852 1862.9 303.548 1870.61 296.94C1878.47 290.332 1884.29 280.971 1888.07 268.856H1890.43L1879.57 317H1757.33V314.64H1760.39Z" fill="#222222"/>
</g>
<defs>
<filter id="filter0_d_130_118" x="810.652" y="3.1582" width="270.083" height="104.842" filterUnits="userSpaceOnUse" color-interpolation-filters="sRGB">
<feFlood flood-opacity="0" result="BackgroundImageFix"/>
<feColorMatrix in="SourceAlpha" type="matrix" values="0 0 0 0 0 0 0 0 0 0 0 0 0 0 0 0 0 0 127 0" result="hardAlpha"/>
<feOffset dy="4"/>
<feGaussianBlur stdDeviation="5"/>
<feComposite in2="hardAlpha" operator="out"/>
<feColorMatrix type="matrix" values="0 0 0 0 0 0 0 0 0 0 0 0 0 0 0 0 0 0 0.25 0"/>
<feBlend mode="normal" in2="BackgroundImageFix" result="effect1_dropShadow_130_118"/>
<feBlend mode="normal" in="SourceGraphic" in2="effect1_dropShadow_130_118" result="shape"/>
</filter>
<filter id="filter1_d_130_118" x="541.62" y="387.552" width="809.975" height="192.752" filterUnits="userSpaceOnUse" color-interpolation-filters="sRGB">
<feFlood flood-opacity="0" result="BackgroundImageFix"/>
<feColorMatrix in="SourceAlpha" type="matrix" values="0 0 0 0 0 0 0 0 0 0 0 0 0 0 0 0 0 0 127 0" result="hardAlpha"/>
<feOffset dy="4"/>
<feGaussianBlur stdDeviation="5"/>
<feComposite in2="hardAlpha" operator="out"/>
<feColorMatrix type="matrix" values="0 0 0 0 0 0 0 0 0 0 0 0 0 0 0 0 0 0 0.25 0"/>
<feBlend mode="normal" in2="BackgroundImageFix" result="effect1_dropShadow_130_118"/>
<feBlend mode="normal" in="SourceGraphic" in2="effect1_dropShadow_130_118" result="shape"/>
</filter>
<filter id="filter2_d_130_118" x="0.620117" y="141.08" width="1899.81" height="193.224" filterUnits="userSpaceOnUse" color-interpolation-filters="sRGB">
<feFlood flood-opacity="0" result="BackgroundImageFix"/>
<feColorMatrix in="SourceAlpha" type="matrix" values="0 0 0 0 0 0 0 0 0 0 0 0 0 0 0 0 0 0 127 0" result="hardAlpha"/>
<feOffset dy="4"/>
<feGaussianBlur stdDeviation="5"/>
<feComposite in2="hardAlpha" operator="out"/>
<feColorMatrix type="matrix" values="0 0 0 0 0 0 0 0 0 0 0 0 0 0 0 0 0 0 0.25 0"/>
<feBlend mode="normal" in2="BackgroundImageFix" result="effect1_dropShadow_130_118"/>
<feBlend mode="normal" in="SourceGraphic" in2="effect1_dropShadow_130_118" result="shape"/>
</filter>
</defs>
</svg>
